<mxfile host="app.diagrams.net" modified="2023-10-03T15:13:19.362Z" agent="Mozilla/5.0 (Windows NT 10.0; Win64; x64) AppleWebKit/537.36 (KHTML, like Gecko) Chrome/114.0.0.0 YaBrowser/23.7.5.739 Yowser/2.5 Safari/537.36" version="21.8.2" etag="xBJN_br6ayQigqYv0LiB" type="github">
  <diagram name="Страница — 1" id="NJcDNSLEHzLs4iHExzK-">
    <mxGraphModel>
      <root>
        <mxCell id="0" />
        <mxCell id="1" parent="0" />
      </root>
    </mxGraphModel>
  </diagram>
</mxfile>
